<svg width="14" height="14" viewBox="0 0 14 14" fill="none" xmlns="http://www.w3.org/2000/svg">
<path d="M1.32775 0.227806C1.02401 -0.0759353 0.531547 -0.0759353 0.227806 0.227806C-0.0759353 0.531547 -0.0759353 1.02401 0.227806 1.32775L5.90006 7L0.227806 12.6723C-0.0759353 12.976 -0.0759353 13.4685 0.227806 13.7722C0.531547 14.0759 1.02401 14.0759 1.32775 13.7722L7 8.09994L12.6723 13.7722C12.976 14.0759 13.4685 14.0759 13.7722 13.7722C14.0759 13.4685 14.0759 12.976 13.7722 12.6723L8.09994 7L13.7722 1.32775C14.0759 1.02401 14.0759 0.531547 13.7722 0.227807C13.4685 -0.0759348 12.976 -0.0759348 12.6723 0.227807L7 5.90006L1.32775 0.227806Z" fill="#CECECE"/>
</svg>
