<svg width="245" height="26" viewBox="0 0 245 26" fill="none" xmlns="http://www.w3.org/2000/svg">
<path d="M4.94296 8.27219C5.43171 7.52067 6.07454 6.92569 6.87145 6.48601C7.66775 6.04633 8.55526 5.82617 9.53276 5.82617C10.4739 5.82617 11.3528 5.98645 12.1669 6.30702C12.9817 6.62758 13.6788 7.09034 14.2582 7.69467C14.8375 8.29963 15.2942 9.04616 15.6295 9.93488C15.9642 10.8236 16.1318 11.8445 16.1318 12.9989C16.1318 14.1527 15.9549 15.1749 15.6024 16.0636C15.2498 16.9524 14.774 17.6989 14.1768 18.3032C13.5796 18.9082 12.8776 19.3709 12.072 19.6915C11.2659 20.0121 10.4018 20.1723 9.47852 20.1723C8.55464 20.1723 7.73123 19.9896 7.00704 19.6229C6.28286 19.2568 5.68502 18.8352 5.21476 18.3587V23.2507C5.21476 23.5258 5.32755 23.7778 5.55435 24.0073C5.78055 24.2355 6.02955 24.3509 6.30135 24.3509H6.62738L6.84495 24.5704V25.7797L6.62738 25.9999H0.217565L0 25.7797V24.5704L0.217565 24.3509H0.543602C0.815403 24.3509 1.06378 24.2355 1.29059 24.0073C1.51678 23.7778 1.63019 23.5264 1.63019 23.2507V10.1132C1.63019 9.83883 1.51678 9.58687 1.29059 9.35737C1.06378 9.12848 0.815403 9.01372 0.543602 9.01372H0.272416L0.00061599 8.73931V8.10692L0.218181 7.8325L4.1294 6.21097H4.94419L5.21599 6.48601L4.94296 8.27219ZM8.79933 7.47514C8.12938 7.47514 7.55434 7.63106 7.07484 7.94289C6.59472 8.25472 6.20582 8.66697 5.9069 9.17962C5.60798 9.6929 5.39103 10.2791 5.25482 10.9384C5.11923 11.5976 5.05082 12.2848 5.05082 12.9996C5.05082 13.7143 5.11861 14.4016 5.25482 15.0608C5.39041 15.72 5.60798 16.3069 5.9069 16.8195C6.20582 17.3322 6.58979 17.7444 7.06128 18.0556C7.53154 18.3675 8.11089 18.5234 8.79933 18.5234C9.50564 18.5234 10.0936 18.3675 10.5645 18.0556C11.0354 17.7444 11.42 17.3322 11.7189 16.8195C12.0178 16.3069 12.2304 15.7194 12.3574 15.0608C12.4837 14.4009 12.5472 13.7137 12.5472 12.9996C12.5472 12.2855 12.4837 11.5976 12.3574 10.9384C12.2304 10.2785 12.0178 9.69227 11.7189 9.17962C11.42 8.66697 11.0354 8.25472 10.5645 7.94289C10.0936 7.63106 9.50564 7.47514 8.79933 7.47514Z" fill="#2A1555"/>
<path d="M25.0135 20.1717C23.999 20.1717 23.0487 19.989 22.1618 19.6223C21.2742 19.2562 20.4958 18.7523 19.8259 18.1105C19.1559 17.47 18.6259 16.7141 18.237 15.8435C17.8475 14.9735 17.6533 14.0249 17.6533 12.9989C17.6533 11.9917 17.8475 11.0481 18.237 10.1681C18.6259 9.28876 19.1559 8.52851 19.8259 7.88676C20.4952 7.24563 21.2742 6.74234 22.1618 6.37562C23.0487 6.00953 23.999 5.82617 25.0135 5.82617C26.0089 5.82617 26.955 6.00953 27.8517 6.37562C28.7479 6.74234 29.5306 7.24626 30.2012 7.88676C30.8705 8.52851 31.4005 9.28876 31.7901 10.1681C32.179 11.0475 32.3743 11.9911 32.3743 12.9989C32.3743 14.0255 32.1796 14.9741 31.7901 15.8435C31.4005 16.7141 30.8711 17.4694 30.2012 18.1105C29.5312 18.7523 28.7485 19.2562 27.8517 19.6223C26.955 19.989 26.0089 20.1717 25.0135 20.1717ZM25.0135 18.6606C25.6286 18.6606 26.1765 18.5184 26.6566 18.2346C27.1362 17.9508 27.53 17.5611 27.8382 17.0665C28.1463 16.5719 28.3811 15.9763 28.5445 15.2803C28.7072 14.5843 28.7885 13.8234 28.7885 12.9989C28.7885 12.1745 28.7072 11.4142 28.5445 10.7182C28.3811 10.0222 28.1463 9.42659 27.8382 8.93202C27.53 8.43746 27.1362 8.04829 26.6566 7.7639C26.1765 7.48013 25.6286 7.33794 25.0135 7.33794C24.3793 7.33794 23.8277 7.48013 23.3568 7.7639C22.886 8.04829 22.4964 8.43746 22.1889 8.93202C21.8807 9.42659 21.6459 10.0222 21.4826 10.7182C21.3192 11.4148 21.2379 12.1745 21.2379 12.9989C21.2379 13.8234 21.3192 14.5843 21.4826 15.2803C21.6453 15.9763 21.8807 16.5719 22.1889 17.0665C22.4964 17.5611 22.886 17.9508 23.3568 18.2346C23.8277 18.519 24.3793 18.6606 25.0135 18.6606Z" fill="#2A1555"/>
<path d="M38.566 20.1724C37.5515 20.1724 36.6603 20.0533 35.8911 19.8157C35.1213 19.5781 34.4742 19.2937 33.9491 18.9644L33.8135 18.6893L34.5469 15.7207L34.8181 15.4469H35.6329L35.9041 15.7207C35.9041 16.6556 36.1031 17.3934 36.5019 17.9335C36.9001 18.4742 37.4973 18.7442 38.2942 18.7442C38.6745 18.7442 38.9956 18.6619 39.2581 18.4973C39.5201 18.3326 39.7333 18.1355 39.896 17.9066C40.0594 17.6778 40.1771 17.4302 40.2492 17.1651C40.3213 16.8994 40.3577 16.6568 40.3577 16.4367C40.3577 16.07 40.2985 15.7594 40.1808 15.5024C40.0631 15.2461 39.8819 15.0259 39.6378 14.8426C39.3937 14.6592 39.0899 14.4946 38.7281 14.3474C38.3657 14.2015 37.9404 14.0455 37.4517 13.8803C36.4199 13.5323 35.6187 13.0333 35.048 12.3822C34.4779 11.7324 34.1925 10.949 34.1925 10.0322C34.1925 9.39112 34.3189 8.81423 34.5728 8.30096C34.8261 7.7883 35.1749 7.34862 35.6187 6.9819C36.0618 6.61581 36.5826 6.33204 37.1805 6.12998C37.7777 5.92853 38.4298 5.82812 39.1361 5.82812C39.8239 5.82812 40.4347 5.89236 40.9691 6.02021C41.5028 6.14869 42.0057 6.3414 42.4766 6.59773L42.667 6.87214L42.8026 9.89504L42.5308 10.1701H41.7161L41.4449 9.89504C41.4449 9.12544 41.268 8.49367 40.9154 7.99848C40.5623 7.50391 40.0415 7.25632 39.3537 7.25632C38.7373 7.25632 38.2492 7.41722 37.8868 7.73716C37.5244 8.05773 37.3438 8.51113 37.3438 9.09738C37.3438 9.73913 37.5749 10.2561 38.0366 10.6503C38.4982 11.0445 39.2181 11.4062 40.1956 11.7361C40.6664 11.9008 41.1096 12.0797 41.5262 12.2718C41.9429 12.4639 42.3096 12.7072 42.6264 12.9996C42.9432 13.2928 43.1965 13.6595 43.3869 14.0992C43.5774 14.5389 43.6723 15.0708 43.6723 15.6933C43.6723 16.4448 43.5318 17.099 43.2513 17.6578C42.9703 18.2166 42.5949 18.6844 42.1241 19.0592C41.6526 19.4352 41.1096 19.7146 40.4945 19.898C39.8788 20.0807 39.2359 20.1724 38.566 20.1724Z" fill="#2A1555"/>
<path d="M51.8459 18.194C52.371 18.194 52.819 18.0518 53.1901 17.7674C53.5611 17.4836 53.8557 17.0021 54.0727 16.3255L54.3438 16.2151L54.6428 16.3255L54.7784 16.5724C54.6878 16.994 54.5651 17.42 54.4116 17.8503C54.2576 18.2807 54.0264 18.6698 53.7189 19.0185C53.4107 19.3671 52.999 19.6459 52.4831 19.8567C51.9673 20.0675 51.3109 20.1722 50.514 20.1722C49.9167 20.1722 49.3503 20.0905 48.8166 19.9253C48.2822 19.7606 47.8206 19.4956 47.4311 19.1288C47.0416 18.7621 46.7291 18.2906 46.4943 17.7131C46.2588 17.1356 46.1411 16.4352 46.1411 15.6107V8.95998C46.1411 8.66686 46.0277 8.41053 45.8015 8.19038C45.5747 7.97023 45.3263 7.86046 45.0545 7.86046H44.1307L43.9131 7.64031V7.03535L49.3183 2.30859H49.7257L49.9975 2.58363L49.7257 6.21087H53.1475L53.3651 6.43102V7.64031L53.1475 7.86046H49.7257V15.6101C49.7257 16.5076 49.9198 17.163 50.31 17.5747C50.7007 17.9882 51.2123 18.194 51.8459 18.194Z" fill="#2A1555"/>
<path d="M58.6094 13.9606C58.7542 15.0602 59.2294 15.9395 60.035 16.5981C60.8405 17.2586 61.8685 17.5879 63.1172 17.5879C64.258 17.5879 65.2534 17.3546 66.1046 16.8869C66.9557 16.4204 67.6707 15.7375 68.25 14.84L68.5212 14.7296L68.8201 14.84L68.9557 15.1144C68.5033 16.7272 67.6928 17.9727 66.5249 18.852C65.357 19.7314 63.9585 20.1705 62.3289 20.1705C61.2602 20.1705 60.2877 19.9827 59.4094 19.6079C58.5311 19.2325 57.7798 18.7192 57.1548 18.0687C56.5299 17.4189 56.0411 16.6493 55.6886 15.7599C55.3354 14.8718 55.1592 13.9145 55.1592 12.8886C55.1592 11.8994 55.3447 10.9745 55.7157 10.1126C56.0868 9.25196 56.5934 8.50481 57.2368 7.87304C57.879 7.24064 58.626 6.74233 59.4772 6.37562C60.3277 6.00953 61.2423 5.82617 62.2205 5.82617C63.3613 5.82617 64.348 6.02325 65.1807 6.41678C66.0133 6.81094 66.7061 7.33295 67.2583 7.98343C67.8106 8.63391 68.218 9.38543 68.4805 10.2367C68.7425 11.0887 68.8743 11.973 68.8743 12.8886L68.6568 13.1087L58.6094 13.9606ZM64.2309 11.9269C64.6476 11.8907 64.9323 11.7529 65.0864 11.5146C65.2405 11.277 65.3175 11.0201 65.3175 10.745C65.3175 9.7378 65.0414 8.94075 64.4892 8.35388C63.9369 7.76826 63.2171 7.47452 62.3302 7.47452C61.1893 7.47452 60.2932 7.90983 59.6417 8.77985C58.9897 9.65048 58.6273 10.7818 58.5551 12.1738L58.745 12.3659L64.2309 11.9269Z" fill="#2A1555"/>
<path d="M76.6424 6.59578C77.276 6.08312 78.0451 5.82617 78.9512 5.82617C79.639 5.82617 80.2004 6.03198 80.635 6.44422C81.0695 6.85647 81.287 7.36475 81.287 7.96971C81.287 8.55595 81.0923 9.05115 80.7034 9.45341C80.3139 9.8563 79.8116 10.0584 79.1958 10.0584C78.5986 10.0584 78.1 9.85193 77.7025 9.43969C77.3037 9.02745 77.1046 8.52851 77.1046 7.94227C76.6701 8.21668 76.2806 8.71187 75.9367 9.42597C75.5922 10.1407 75.4208 10.9833 75.4208 11.9543V17.0378C75.4208 17.3128 75.5336 17.5654 75.7604 17.7943C75.9866 18.0232 76.2356 18.1379 76.5074 18.1379H76.8334L77.051 18.3575V19.5668L76.8334 19.7869H70.4236L70.2061 19.5668V18.3575L70.4236 18.1379H70.7497C71.0215 18.1379 71.2698 18.0232 71.4967 17.7943C71.7228 17.5654 71.8362 17.3135 71.8362 17.0378V10.1132C71.8362 9.83883 71.7228 9.58687 71.4967 9.35737C71.2698 9.12848 71.0215 9.01372 70.7497 9.01372H70.4785L70.2067 8.73931V8.10692L70.4242 7.8325L74.3355 6.21097H75.1502L75.4221 6.48601L75.1502 8.51978C75.5108 7.75018 76.0088 7.10905 76.6424 6.59578Z" fill="#2A1555"/>
<path d="M82.9434 6.21035H86.5285V7.88676C86.9446 7.28243 87.551 6.78724 88.3479 6.40306C89.1449 6.01826 89.9504 5.82617 90.7652 5.82617C91.6884 5.82617 92.4903 5.98645 93.1689 6.30702C93.8481 6.62758 94.3596 7.10905 94.7035 7.74955C95.3008 7.10843 95.9744 6.62758 96.7257 6.30702C97.477 5.98645 98.3423 5.82617 99.3198 5.82617C100.623 5.82617 101.665 6.21097 102.443 6.98057C103.221 7.75018 103.611 8.80355 103.611 10.1407V19.7869H100.027V11.5969C100.027 10.7912 99.8499 10.1862 99.4973 9.78332C99.1436 9.38044 98.632 9.17899 97.9627 9.17899C97.1658 9.17899 96.4866 9.48584 95.9257 10.0995C95.3636 10.7132 95.0832 11.5059 95.0832 12.4769V19.7875H91.4986V11.5969C91.4986 9.98539 90.8016 9.17899 89.4074 9.17899C88.6105 9.17899 87.9313 9.49956 87.3705 10.1407C86.809 10.7824 86.5285 11.6069 86.5285 12.6141V19.7869H82.9434V6.21035Z" fill="#FF556A"/>
<path d="M109.274 19.2923C108.269 18.7061 107.455 17.8679 106.83 16.7777C106.205 15.6876 105.893 14.4278 105.893 12.9989C105.893 11.6986 106.191 10.498 106.789 9.39915C107.387 8.30025 108.201 7.42961 109.233 6.78786C110.265 6.14674 111.396 5.82617 112.628 5.82617C113.497 5.82617 114.289 5.97273 115.004 6.26585C115.719 6.55898 116.267 6.95313 116.648 7.4477V6.21097H120.232V19.7875H116.648V18.5508C116.086 19.0834 115.488 19.4851 114.855 19.7601C114.221 20.0345 113.406 20.1717 112.411 20.1717C111.325 20.1711 110.279 19.878 109.274 19.2923ZM115.806 15.7187C116.476 14.9866 116.811 14.0798 116.811 12.9983C116.811 11.9175 116.476 11.0107 115.806 10.2779C115.136 9.54508 114.248 9.17837 113.144 9.17837C112.04 9.17837 111.152 9.54508 110.483 10.2779C109.813 11.0107 109.478 11.9175 109.478 12.9983C109.478 14.0798 109.813 14.9866 110.483 15.7187C111.152 16.4522 112.04 16.8189 113.144 16.8189C114.248 16.8189 115.136 16.4522 115.806 15.7187Z" fill="#FF556A"/>
<path d="M123.382 6.21097H126.967V7.55747C127.384 7.00802 127.9 6.58205 128.515 6.27958C129.131 5.9771 129.765 5.82617 130.417 5.82617C130.905 5.82617 131.313 5.87669 131.639 5.9771C131.964 6.07813 132.281 6.23779 132.589 6.45794L132.833 10.2779H132.317C132.046 9.94797 131.697 9.68229 131.272 9.48085C130.846 9.27941 130.407 9.179 129.954 9.179C129.103 9.179 128.393 9.44967 127.822 9.98976C127.252 10.5305 126.966 11.3319 126.966 12.3946V19.7875H123.382V6.21097H123.382Z" fill="#FF556A"/>
<path d="M134.437 0H138.021V11.7898L142.693 6.21108H146.957L141.688 12.5045L147.337 19.787H142.747L138.021 13.4936V19.787H134.437V0Z" fill="#FF556A"/>
<path d="M150.949 19.21C149.826 18.5689 148.943 17.6933 148.301 16.585C147.658 15.4768 147.337 14.245 147.337 12.8886C147.337 11.5695 147.64 10.3739 148.247 9.30248C148.853 8.2304 149.696 7.38346 150.773 6.76042C151.85 6.13738 153.068 5.82617 154.426 5.82617C155.802 5.82617 156.992 6.1511 157.998 6.80158C159.002 7.45207 159.763 8.31771 160.279 9.39915C160.795 10.48 161.053 11.6437 161.053 12.8892V13.9613H150.759C150.977 14.9878 151.443 15.7661 152.158 16.2969C152.873 16.8289 153.819 17.0939 154.997 17.0939C156.789 17.0939 158.355 16.499 159.695 15.3078H160.075L159.939 18.7429C159.125 19.22 158.264 19.5774 157.358 19.815C156.453 20.0526 155.584 20.1717 154.752 20.1717C153.339 20.1711 152.071 19.8505 150.949 19.21ZM157.467 11.4872C157.376 10.6627 157.037 10.0172 156.449 9.55007C155.86 9.08295 155.14 8.84907 154.29 8.84907C153.456 8.84907 152.728 9.07359 152.103 9.52263C151.478 9.97167 151.058 10.6265 150.84 11.4872H157.467Z" fill="#FF556A"/>
<path d="M165.751 19.0178C164.936 18.2482 164.529 17.1119 164.529 15.6095V9.28928H162.302V6.21087H164.529V3.95756L168.114 2.30859V6.21087H171.753V9.28928H168.114V15.4455C168.114 16.013 168.25 16.4346 168.521 16.709C168.792 16.9834 169.146 17.1213 169.581 17.1213C170.25 17.1213 170.938 16.8556 171.645 16.3248H172.052L171.808 19.4843C171.21 19.7594 170.708 19.9421 170.3 20.0344C169.893 20.1267 169.364 20.1716 168.712 20.1716C167.552 20.1716 166.566 19.7874 165.751 19.0178Z" fill="#FF556A"/>
<path d="M174.93 3.90165C174.93 3.62723 174.816 3.37528 174.591 3.14639C174.364 2.91751 174.116 2.80275 173.844 2.80275H173.572L173.301 2.52834V1.70385L177.701 0H178.516L178.787 0.275036L178.516 2.80337V7.88749C178.986 7.30125 179.588 6.81105 180.322 6.41751C181.055 6.02398 181.955 5.8269 183.024 5.8269C183.73 5.8269 184.382 5.92295 184.98 6.11503C185.577 6.30775 186.093 6.60087 186.528 6.9944C186.962 7.38856 187.302 7.87876 187.546 8.46438C187.791 9.05125 187.913 9.73791 187.913 10.5256V17.0385C187.913 17.3136 188.026 17.5661 188.253 17.795C188.478 18.0239 188.728 18.1387 189 18.1387H189.325L189.543 18.3582V19.5675L189.325 19.7876H182.916L182.699 19.5675V18.3582L182.916 18.1387H183.242C183.513 18.1387 183.762 18.0239 183.989 17.795C184.215 17.5661 184.328 17.3142 184.328 17.0385V10.6354C184.328 9.7747 184.102 9.11923 183.649 8.67019C183.197 8.22178 182.572 7.99663 181.775 7.99663C181.341 7.99663 180.928 8.07896 180.54 8.2436C180.149 8.40888 179.806 8.64649 179.507 8.95832C179.209 9.27016 178.968 9.6456 178.787 10.0853C178.606 10.525 178.516 11.0289 178.516 11.5964V17.0379C178.516 17.3129 178.629 17.5655 178.856 17.7944C179.082 18.0233 179.331 18.1381 179.603 18.1381H179.928L180.146 18.3576V19.5669L179.928 19.787H173.519L173.301 19.5669V18.3576L173.519 18.1381H173.845C174.116 18.1381 174.365 18.0233 174.592 17.7944C174.818 17.5655 174.932 17.3136 174.932 17.0379V3.90165H174.93Z" fill="#2A1555"/>
<path d="M197.852 20.1717C196.838 20.1717 195.888 19.989 195.001 19.6223C194.114 19.2562 193.335 18.7523 192.665 18.1105C191.995 17.47 191.465 16.7141 191.076 15.8435C190.686 14.9735 190.492 14.0249 190.492 12.9989C190.492 11.9917 190.686 11.0481 191.076 10.1681C191.465 9.28876 191.995 8.52851 192.665 7.88676C193.335 7.24563 194.114 6.74234 195.001 6.37562C195.887 6.00953 196.838 5.82617 197.852 5.82617C198.848 5.82617 199.794 6.00953 200.69 6.37562C201.586 6.74234 202.369 7.24626 203.039 7.88676C203.709 8.52851 204.239 9.28876 204.628 10.1681C205.018 11.0475 205.212 11.9911 205.212 12.9989C205.212 14.0255 205.018 14.9741 204.628 15.8435C204.239 16.7141 203.709 17.4694 203.039 18.1105C202.369 18.7523 201.587 19.2562 200.69 19.6223C199.794 19.989 198.848 20.1717 197.852 20.1717ZM197.852 18.6606C198.467 18.6606 199.015 18.5184 199.496 18.2346C199.975 17.9508 200.369 17.5611 200.677 17.0665C200.985 16.5719 201.22 15.9763 201.383 15.2803C201.547 14.5843 201.627 13.8234 201.627 12.9989C201.627 12.1745 201.546 11.4142 201.383 10.7182C201.22 10.0222 200.985 9.42659 200.677 8.93202C200.369 8.43746 199.975 8.04829 199.496 7.7639C199.015 7.48013 198.467 7.33794 197.852 7.33794C197.219 7.33794 196.666 7.48013 196.196 7.7639C195.725 8.04829 195.335 8.43746 195.028 8.93202C194.72 9.42659 194.485 10.0222 194.321 10.7182C194.158 11.4148 194.077 12.1745 194.077 12.9989C194.077 13.8234 194.159 14.5843 194.321 15.2803C194.484 15.9763 194.72 16.5719 195.028 17.0665C195.335 17.5611 195.725 17.9508 196.196 18.2346C196.667 18.5184 197.219 18.6606 197.852 18.6606Z" fill="#2A1555"/>
<path d="M207.928 10.1132C207.928 9.83883 207.814 9.58687 207.589 9.35736C207.362 9.12848 207.114 9.01372 206.842 9.01372H206.57L206.299 8.73931V8.10692L206.516 7.8325L210.428 6.21097H211.242L211.514 6.48601L211.242 8.27219C211.694 7.52067 212.337 6.92569 213.17 6.48601C214.004 6.04633 214.863 5.82617 215.751 5.82617C216.656 5.82617 217.493 6.00454 218.263 6.3619C219.032 6.71926 219.571 7.31049 219.879 8.13436C220.368 7.38346 220.974 6.81094 221.698 6.41678C222.423 6.02325 223.292 5.82617 224.305 5.82617C225.609 5.82617 226.655 6.20162 227.443 6.95314C228.23 7.70465 228.624 8.76675 228.624 10.1407V17.0384C228.624 17.3135 228.737 17.566 228.964 17.7949C229.189 18.0238 229.439 18.1386 229.711 18.1386H230.036L230.254 18.3581V19.5674L230.036 19.7875H223.627L223.409 19.5674V18.3581L223.627 18.1386H223.952C224.224 18.1386 224.473 18.0238 224.699 17.7949C224.926 17.566 225.039 17.3141 225.039 17.0384V10.6633C225.039 9.80266 224.863 9.14282 224.509 8.68443C224.157 8.22666 223.627 7.99715 222.921 7.99715C222.124 7.99715 221.449 8.31335 220.898 8.94575C220.346 9.57752 220.069 10.4619 220.069 11.5976V17.039C220.069 17.3141 220.182 17.5667 220.409 17.7956C220.635 18.0244 220.884 18.1392 221.156 18.1392H221.481L221.699 18.3587V19.568L221.481 19.7882H215.072L214.855 19.568V18.3587L215.072 18.1392H215.398C215.669 18.1392 215.918 18.0244 216.145 17.7956C216.371 17.5667 216.484 17.3147 216.484 17.039V10.6633C216.484 9.80266 216.317 9.14282 215.983 8.68443C215.647 8.22666 215.118 7.99715 214.394 7.99715C213.597 7.99715 212.918 8.31335 212.357 8.94575C211.795 9.57752 211.515 10.4619 211.515 11.5976V17.039C211.515 17.3141 211.628 17.5667 211.854 17.7956C212.081 18.0244 212.33 18.1392 212.601 18.1392H212.927L213.144 18.3587V19.568L212.927 19.7882H206.518L206.3 19.568V18.3587L206.518 18.1392H206.844C207.115 18.1392 207.364 18.0244 207.591 17.7956C207.816 17.5667 207.93 17.3147 207.93 17.039V10.1132H207.928Z" fill="#2A1555"/>
<path d="M234.653 13.9606C234.798 15.0602 235.273 15.9395 236.078 16.5981C236.884 17.2586 237.912 17.5879 239.161 17.5879C240.302 17.5879 241.297 17.3546 242.149 16.8869C243 16.4204 243.715 15.7375 244.294 14.84L244.565 14.7296L244.864 14.84L245 15.1144C244.547 16.7272 243.737 17.9727 242.569 18.852C241.401 19.7314 240.002 20.1705 238.373 20.1705C237.305 20.1705 236.332 19.9827 235.453 19.6079C234.575 19.2331 233.824 18.7192 233.199 18.0687C232.574 17.4189 232.086 16.6493 231.733 15.7599C231.38 14.8718 231.203 13.9145 231.203 12.8886C231.203 11.8994 231.389 10.9745 231.76 10.1126C232.131 9.25196 232.638 8.50481 233.281 7.87304C233.924 7.24127 234.671 6.74233 235.522 6.37562C236.373 6.00953 237.287 5.82617 238.265 5.82617C239.406 5.82617 240.392 6.02325 241.225 6.41678C242.058 6.81094 242.751 7.33295 243.303 7.98343C243.855 8.63391 244.263 9.38543 244.524 10.2367C244.787 11.0887 244.919 11.973 244.919 12.8886L244.701 13.1087L234.653 13.9606ZM240.275 11.9269C240.691 11.8907 240.976 11.7529 241.13 11.5146C241.284 11.277 241.361 11.0201 241.361 10.745C241.361 9.7378 241.085 8.94075 240.532 8.35388C239.98 7.76826 239.261 7.47452 238.373 7.47452C237.233 7.47452 236.337 7.90983 235.685 8.77985C235.033 9.65048 234.671 10.7818 234.598 12.1738L234.789 12.3659L240.275 11.9269Z" fill="#2A1555"/>
</svg>
