<svg width="28" height="26" viewBox="0 0 28 26" fill="none" xmlns="http://www.w3.org/2000/svg">
<path d="M21.0198 6.51838e-05C19.5626 0.0314701 18.1424 0.467769 16.9159 1.2608C15.6895 2.05383 14.7044 3.17276 14.0695 4.49407C13.423 3.14954 12.4142 2.0152 11.1582 1.22055C9.90216 0.425907 8.4496 0.00298171 6.96634 6.51838e-05C6.01245 -0.00215875 5.06832 0.1934 4.19272 0.574568C3.31712 0.955736 2.5288 1.51435 1.87682 2.21564C1.22485 2.91693 0.723191 3.74588 0.40307 4.65088C0.0829493 5.55589 -0.0487777 6.51757 0.0160894 7.47607C0.0160894 16.8001 12.8185 25.2001 13.3606 25.5221L14 25.9281L14.6255 25.5221C15.1676 25.1721 27.9839 16.8701 27.9839 7.47607C28.0489 6.51639 27.9167 5.55353 27.5958 4.64757C27.2748 3.74161 26.7719 2.912 26.1184 2.2105C25.465 1.50901 24.675 0.950681 23.7977 0.570367C22.9205 0.190053 21.9748 -0.00408572 21.0198 6.51838e-05Z" fill="#2A1555"/>
</svg>
