<svg width="28" height="26" viewBox="0 0 28 26" xmlns="http://www.w3.org/2000/svg">
  <path d="M21.0198 0.0352214C19.5626 0.0666264 18.1424 0.502925 16.9159 1.29596C15.6895 2.08899 14.7044 3.20792 14.0695 4.52922C13.423 3.1847 12.4142 2.05036 11.1582 1.25571C9.90216 0.461064 8.4496 0.038138 6.96634 0.0352214C6.01245 0.0329975 5.06832 0.228557 4.19272 0.609725C3.31712 0.990893 2.5288 1.54951 1.87682 2.2508C1.22485 2.95209 0.723191 3.78104 0.40307 4.68604C0.0829493 5.59104 -0.0487777 6.55273 0.0160894 7.51122C0.0160894 16.8352 12.8185 25.2352 13.3606 25.5572L14 25.9632L14.6255 25.5572C15.1676 25.2072 27.9839 16.9052 27.9839 7.51122C28.0489 6.55155 27.9167 5.58869 27.5958 4.68273C27.2748 3.77677 26.7719 2.94716 26.1184 2.24566C25.465 1.54416 24.675 0.985837 23.7977 0.605523C22.9205 0.225209 21.9748 0.0310705 21.0198 0.0352214ZM14.0695 23.1352C14.0579 23.1273 14.0462 23.1193 14.0344 23.1112C11.4026 21.3095 2.36527 14.4381 2.36527 7.51122C2.29665 6.86347 2.36481 6.20841 2.56529 5.58906C2.76577 4.96971 3.09403 4.40006 3.52853 3.9175C3.96303 3.43494 4.49394 3.05038 5.08643 2.78906C5.67891 2.52774 6.31956 2.39557 6.96634 2.40122C9.46843 2.40122 12.1373 4.23522 12.7073 8.22522H15.3066C15.8766 4.23522 18.5455 2.40122 21.0476 2.40122C21.6949 2.3958 22.336 2.528 22.9291 2.78919C23.5222 3.05038 24.0539 3.43467 24.4895 3.91696C24.925 4.39925 25.2547 4.96867 25.4568 5.58803C25.6589 6.20738 25.729 6.86272 25.6625 7.51122C25.6348 14.4936 16.598 21.3234 14.0344 23.1112C14.0228 23.1193 14.0113 23.1273 14 23.1352H14.0695Z" fill="#2A1555"/>
  <path d="M2.36527 7.51122C2.36527 14.4381 11.4026 21.3095 14.0344 23.1112C16.598 21.3234 25.6348 14.4936 25.6625 7.51122C25.729 6.86272 25.6589 6.20738 25.4568 5.58803C25.2547 4.96867 24.925 4.39925 24.4895 3.91696C24.0539 3.43467 23.5222 3.05038 22.9291 2.78919C22.336 2.528 21.6949 2.3958 21.0476 2.40122C18.5455 2.40122 15.8766 4.23522 15.3066 8.22522H12.7073C12.1373 4.23522 9.46843 2.40122 6.96634 2.40122C6.31956 2.39557 5.67891 2.52774 5.08643 2.78906C4.49394 3.05038 3.96303 3.43494 3.52853 3.9175C3.09403 4.40006 2.76577 4.96971 2.56529 5.58906C2.36481 6.20841 2.29665 6.86347 2.36527 7.51122Z" fill="transparent"/>
</svg>
